#!OML:ASF H:\Terrain\Patient Classification 1\Walking\steve\steve.ASF
:FULLY-SPECIFIED
:DEGREES
283
root 8.15241 16.5961 29.0981 5.74392 -3.79634 2.94666
lowerback -1.65286 2.04616 -6.04318
upperback -1.03942 2.80511 -1.023
thorax -0.383045 1.43192 2.35879
lowerneck -12.494 -1.31598 -3.16393
upperneck 16.0176 -1.72288 3.09795
head 7.01092 -0.744866 1.35828
rclavicle 1.44989e-014 9.34288e-015
rhumerus -42.9595 -15.5381 -79.1236
rradius 20.7476
rwrist 5.70909
rhand -15.2125 -38.362
rfingers 7.12502
rthumb 10.9598 -68.0559
lclavicle 1.44989e-014 9.34288e-015
lhumerus -8.85459 -6.14055 89.4591
lradius 32.9832
lwrist 21.5282
lhand -22.4141 -13.1298
lfingers 7.12502
lthumb 4.00886 16.8122
rfemur -37.1729 1.08417 20.0317
rtibia 53.6356
rfoot -21.9703 1.32579
rtoes -14.2401
lfemur -10.5474 1.21809 -28.4725
ltibia 29.2123
lfoot -22.9363 -3.85584
ltoes 4.1346
284
root 8.14912 16.6034 29.3053 5.7907 -3.33428 3.02023
lowerback -0.134131 1.95689 -6.12833
upperback -2.17877 2.52286 -1.00028
thorax -2.39441 1.36883 2.3432
lowerneck -11.2056 -1.50037 -3.76665
upperneck 16.3414 -2.00273 3.63167
head 6.90995 -0.881109 1.61034
rclavicle 2.59662e-015 -4.17448e-015
rhumerus -47.1205 -17.3242 -76.2587
rradius 20.0058
rwrist 8.31724
rhand -14.0065 -38.0249
rfingers 7.12502
rthumb 12.1229 -67.6536
lclavicle 2.59662e-015 -4.17448e-015
lhumerus -8.64714 -8.06171 89.6297
lradius 34.0735
lwrist 22.4345
lhand -23.1368 -13.6379
lfingers 7.12502
lthumb 3.311 16.3161
rfemur -38.0966 1.03871 19.979
rtibia 51.3525
rfoot -21.6478 1.64279
rtoes -12.1915
lfemur -9.19206 1.50224 -28.4758
ltibia 28.0433
lfoot -22.5662 -4.65763
ltoes 4.14709
285
root 8.14151 16.6119 29.5155 5.99342 -2.942 2.83193
lowerback -2.00759 1.68824 -6.00077
upperback -0.900547 2.36035 -0.863935
thorax -0.00789805 1.19721 2.51252
lowerneck -11.8696 -1.93963 -5.4104
upperneck 14.8132 -2.5859 5.71946
head 6.60621 -1.07731 2.4919
rclavicle 2.23633e-016 2.22639e-014
rhumerus -47.1161 -20.4735 -73.7926
rradius 18.1823
rwrist 11.5645
rhand -14.5109 -36.1786
rfingers 7.12502
rthumb 11.6364 -65.8354
lclavicle 2.23633e-016 2.22639e-014
lhumerus -4.10933 -10.1616 88.9006
lradius 34.35
lwrist 23.9091
lhand -23.5668 -13.9886
lfingers 7.12502
lthumb 2.89572 15.9714
rfemur -39.0818 1.18119 20.2013
rtibia 48.9851
rfoot -21.1176 1.46382
rtoes -11.2192
lfemur -8.05004 1.52329 -28.1789
ltibia 26.972
lfoot -22.274 -5.24048
ltoes 4.72085
286
root 8.13685 16.6152 29.7317 6.33223 -2.35165 2.3699
lowerback -0.959411 1.39679 -5.64407
upperback -2.03535 1.8505 -0.672912
thorax -1.71619 1.00832 2.45478
lowerneck -11.1018 -1.19673 -3.20178
upperneck 15.7595 -1.60082 3.17635
head 6.681 -0.694011 1.40451
rclavicle 4.14777e-014 -3.77691e-015
rhumerus -51.435 -22.6085 -69.5269
rradius 17.1373
rwrist 14.5118
rhand -15.1594 -34.8601
rfingers 7.12502
rthumb 11.011 -64.5513
lclavicle 4.14777e-014 -3.77691e-015
lhumerus -3.6227 -11.8248 88.4237
lradius 35.1199
lwrist 25.1341
lhand -23.3025 -14.5134
lfingers 7.12502
lthumb 3.15099 15.443
rfemur -39.9902 1.01169 20.7989
rtibia 46.6103
rfoot -20.7992 1.30171
rtoes -11.6586
lfemur -6.9952 1.46632 -27.5558
ltibia 25.8591
lfoot -22.0016 -5.81203
ltoes 5.37559
287
root 8.13797 16.5875 29.9495 6.32948 -1.79614 2.68629
lowerback -1.66187 1.11151 -5.77885
upperback -1.5614 1.53765 -0.737694
thorax -0.808223 0.820458 2.49039
lowerneck -11.531 -1.23526 -3.48408
upperneck 15.7524 -1.63881 3.4635
head 6.75947 -0.701077 1.53906
rclavicle -1.75614e-014 4.77083e-015
rhumerus -53.998 -25.9919 -64.9415
rradius 16.2439
rwrist 18.4865
rhand -16.0341 -35.4875
rfingers 7.12502
rthumb 10.1673 -65.2218
lclavicle -1.75614e-014 4.77083e-015
lhumerus -0.780739 -13.2919 87.5704
lradius 35.7506
lwrist 26.1979
lhand -23.2749 -14.6784
lfingers 7.12502
lthumb 3.17766 15.2776
rfemur -40.5481 0.529751 20.6016
rtibia 44.2535
rfoot -20.4146 1.50306
rtoes -10.7864
lfemur -5.6175 1.52109 -27.7913
ltibia 24.829
lfoot -21.6772 -6.57551
ltoes 6.8622
288
root 8.13742 16.5582 30.1634 6.00181 -1.29006 3.07606
lowerback -1.68955 0.772727 -6.23435
upperback -1.16759 1.10959 -0.684871
thorax -0.360669 0.58985 2.80211
lowerneck -11.7562 -0.959772 -2.94772
upperneck 15.6443 -1.26056 2.92423
head 6.74363 -0.531338 1.3105
rclavicle -8.39865e-015 -8.94531e-015
rhumerus -56.6631 -28.192 -60.6864
rradius 15.5209
rwrist 22.1353
rhand -16.576 -36.6561
rfingers 7.12502
rthumb 9.64441 -66.4153
lclavicle -8.39865e-015 -8.94531e-015
lhumerus 1.8266 -14.0529 86.7773
lradius 36.2734
lwrist 26.6055
lhand -23.6118 -14.4331
lfingers 7.12502
lthumb 2.85227 15.5276
rfemur -40.729 0.290182 20.2064
rtibia 41.8909
rfoot -19.9919 1.57373
rtoes -9.17498
lfemur -3.85323 1.6624 -28.0737
ltibia 23.7574
lfoot -21.5026 -7.28615
ltoes 7.54275
289
root 8.13454 16.5521 30.3828 5.95792 -0.625847 2.72377
lowerback -3.58772 0.363285 -5.81329
upperback 0.383273 0.752272 -0.532531
thorax 2.34309 0.303319 2.75215
lowerneck -12.6668 -1.41132 -4.10162
upperneck 14.3176 -1.77127 3.95339
head 6.512 -0.749168 1.77618
rclavicle -2.5345e-015 -2.03754e-014
rhumerus -57.8271 -31.8383 -56.4668
rradius 14.4443
rwrist 26.527
rhand -16.7524 -37.1422
rfingers 7.12502
rthumb 9.47427 -66.9092
lclavicle -2.5345e-015 -2.03754e-014
lhumerus 6.64159 -14.7161 85.1964
lradius 36.3629
lwrist 26.9557
lhand -23.8683 -14.5779
lfingers 7.12502
lthumb 2.60453 15.3859
rfemur -41.1094 0.285924 20.4472
rtibia 39.6305
rfoot -19.7584 1.55068
rtoes -9.67143
lfemur -2.15788 1.83254 -27.4725
ltibia 22.3383
lfoot -21.4907 -8.05846
ltoes 6.13408
290
root 8.13005 16.546 30.6072 6.29068 -0.116367 2.73124
lowerback -2.33051 0.251165 -5.65109
upperback -0.934934 0.460338 -0.533241
thorax 0.304562 0.240439 2.63078
lowerneck -12.3462 -1.39696 -3.29721
upperneck 15.7865 -1.76268 2.84332
head 6.91103 -0.796373 1.29346
rclavicle 1.36975e-014 -2.5842e-014
rhumerus -63.1618 -31.786 -51.3783
rradius 14.3968
rwrist 28.5872
rhand -17.0381 -37.8212
rfingers 7.12502
rthumb 9.19855 -67.6006
lclavicle 1.36975e-014 -2.5842e-014
lhumerus 6.89483 -15.9258 84.8333
lradius 36.6939
lwrist 27.1911
lhand -23.6376 -14.5848
lfingers 7.12502
lthumb 2.82735 15.3762
rfemur -41.9619 0.36477 20.2587
rtibia 37.3705
rfoot -19.1483 1.70175
rtoes -10.5806
lfemur -0.916887 2.0113 -27.2675
ltibia 21.0002
lfoot -21.4094 -8.73084
ltoes 4.85516
291
root 8.12795 16.5243 30.8326 6.40455 0.308146 3.60479
lowerback -2.81982 -0.0395068 -6.61137
upperback -0.744044 0.141756 -0.568756
thorax 0.800239 0.0633085 3.12554
lowerneck -12.3379 -1.3069 -3.48904
upperneck 15.5773 -1.59219 2.80923
head 6.83797 -0.728699 1.32972
rclavicle 1.89467e-016 -1.63997e-015
rhumerus -66.722 -33.1483 -45.8656
rradius 14.0011
rwrist 32.2168
rhand -17.0012 -38.119
rfingers 7.12502
rthumb 9.23418 -67.8968
lclavicle 1.89467e-016 -1.63997e-015
lhumerus 9.36701 -16.3554 84.0892
lradius 36.6889
lwrist 27.0234
lhand -23.7714 -15.1577
lfingers 7.12502
lthumb 2.69815 14.805
rfemur -42.6887 0.165435 19.2571
rtibia 35.3024
rfoot -18.7282 1.64043
rtoes -12.9394
lfemur 0.740127 2.22502 -28.0089
ltibia 19.2531
lfoot -20.7892 -9.2823
ltoes 4.16582
292
root 8.17776 16.4967 31.0326 8.05174 0.164781 3.9765
lowerback -4.29734 -0.18392 -6.15921
upperback -1.25701 0.0302089 -0.826648
thorax 1.11076 0.0101358 2.60349
lowerneck -11.9775 -1.02926 -3.20091
upperneck 15.2553 -1.25053 2.66881
head 6.65749 -0.561627 1.26881
rclavicle 5.14666e-015 2.5842e-015
rhumerus -71.8416 -34.6881 -38.0685
rradius 12.899
rwrist 38.7261
rhand -18.2784 -36.7999
rfingers 7.12502
rthumb 8.00161 -66.6285
lclavicle 5.14666e-015 2.5842e-015
lhumerus 11.3605 -16.9429 83.1126
lradius 36.8396
lwrist 26.7847
lhand -24.7485 -15.5654
lfingers 7.12502
lthumb 1.75443 14.4071
rfemur -45.3427 -0.809798 19.2296
rtibia 33.3853
rfoot -18.2187 2.34383
rtoes -16.0718
lfemur 0.692258 2.08132 -28.7249
ltibia 17.3075
lfoot -19.8644 -9.08537
ltoes 4.50905
